<svg width="12" height="12" viewBox="0 0 12 12" fill="none" xmlns="http://www.w3.org/2000/svg">
<path fill-rule="evenodd" clip-rule="evenodd" d="M9.53553 1.05026C9.92605 0.659731 10.5592 0.659731 10.9497 1.05026C11.3403 1.44078 11.3403 2.07394 10.9497 2.46447L7.41421 6L10.9497 9.53554C11.3403 9.92606 11.3403 10.5592 10.9497 10.9498C10.5592 11.3403 9.92605 11.3403 9.53553 10.9498L6 7.41422L2.46446 10.9498C2.07394 11.3403 1.44077 11.3403 1.05025 10.9498C0.659724 10.5592 0.659724 9.92606 1.05025 9.53554L4.58578 6L1.05025 2.46447C0.659724 2.07394 0.659724 1.44078 1.05025 1.05026C1.44077 0.659731 2.07394 0.659731 2.46446 1.05026L6 4.58579L9.53553 1.05026Z" fill="#DE8270"/>
</svg>
